PathFileType	4	(X/Y/Z)	D:\TRACE\spot_10-12-23\spot_arm_motion_1_5-platform.trc
DataRate	CameraRate	NumFrames	NumMarkers	Units	OrigDataRate	OrigDataStartFrame	OrigNumFrames
100.00	100.00	      49	5	mm	100.00	4376	      7000
Frame#	Time	Left_Front			Right_Front			Left_Aft			Right_Aft			Post			
		X1	Y1	Z1	X2	Y2	Z2	X3	Y3	Z3	X4	Y4	Z4	X5	Y5	Z5	

4376	43.750	-732.56561	-10.20454	-645.34027	839.60852	-4.95655	-638.33301	-649.92908	16.10340	492.32364	767.18042	23.11164	578.57465	50.28584	719.99768	-980.66132	
4377	43.760	-732.95392	-9.92577	-645.25269	839.43225	-4.63657	-638.27112	-650.22479	15.99155	492.70129	767.09467	22.99723	578.63739	49.89795	720.45850	-980.50592	
4378	43.770	-733.45941	-9.55343	-645.13043	839.19574	-4.34797	-638.18781	-650.53503	15.58775	492.74576	766.89850	22.86096	578.74420	49.49620	720.93445	-980.29932	
4379	43.780	-733.59888	-9.47138	-645.11188	838.84149	-4.01637	-638.11768	-650.97736	15.34961	492.77954	766.44519	22.52549	578.87775	48.95934	721.34753	-980.06421	
4380	43.790	-734.16949	-9.02751	-645.05994	838.33661	-3.75019	-638.16504	-651.36182	15.20747	492.84021	765.97394	22.18248	578.97864	48.56852	721.89734	-979.71356	
4381	43.800	-734.85986	-8.60569	-644.88953	838.01019	-3.53524	-638.01337	-651.61841	14.98181	493.06277	765.38354	21.87070	579.01752	48.21926	722.40759	-979.45630	
4382	43.810	-735.23376	-8.32756	-644.73254	837.59290	-3.21048	-637.88818	-652.12024	14.77076	493.11081	764.84711	21.60406	579.01605	47.87927	722.92603	-979.03711	
4383	43.820	-735.47034	-8.16499	-644.69409	837.00262	-2.82251	-637.77936	-652.59851	14.49728	493.15347	764.54584	21.37466	579.09204	47.54169	723.42157	-978.47095	
4384	43.830	-735.88043	-7.68698	-644.64056	836.67377	-2.42945	-637.73120	-652.94415	14.34721	493.20294	764.37885	21.18769	579.17401	47.19154	723.81720	-977.88507	
4385	43.840	-736.31140	-7.28387	-644.54352	836.42017	-2.13607	-637.67371	-653.34686	14.23303	493.22064	764.00745	20.88985	579.35608	46.71290	724.14990	-977.35773	
4386	43.850	-736.75531	-6.94010	-644.41406	835.85889	-1.84095	-637.69403	-653.84406	14.13426	493.21802	763.36206	20.48154	579.52808	45.90162	724.70074	-976.82721	
4387	43.860	-737.32043	-6.69713	-644.37811	835.48859	-1.55030	-637.46906	-654.50549	13.78218	493.20215	762.83899	20.22172	579.57397	45.41102	725.19727	-976.31958	
4388	43.870	-737.83813	-6.34090	-644.33911	834.79889	-1.02246	-637.59045	-655.02972	13.64686	493.24222	762.39063	20.05936	579.54443	45.06704	725.74146	-975.70282	
4389	43.880	-738.63062	-5.76599	-644.26416	834.26324	-0.56662	-637.56647	-655.28540	13.51974	493.22467	761.94788	19.86295	579.53589	44.69284	726.17206	-975.19287	
4390	43.890	-738.85370	-5.60251	-644.19006	833.94623	-0.36883	-637.42950	-655.83319	13.27508	493.38788	761.42798	19.60741	579.57904	44.27080	726.63763	-974.80212	
4391	43.900	-739.40369	-5.16606	-644.13757	833.40869	-0.13958	-637.37262	-656.46063	12.81855	493.42303	760.88452	19.31903	579.61548	43.78259	727.24384	-974.47125	
4392	43.910	-739.67249	-5.03180	-644.15625	832.88910	0.14770	-637.24719	-656.73169	12.63792	493.50519	760.19989	19.00698	579.71259	43.12971	727.67889	-974.16229	
4393	43.920	-739.91113	-4.99333	-644.03729	832.20557	0.54625	-637.25977	-657.32159	12.42893	493.58783	759.78076	18.68738	579.80786	42.43099	728.11395	-973.84222	
4394	43.930	-741.09607	-4.35847	-643.86920	831.73309	0.78775	-637.16821	-657.91205	12.07728	493.65573	759.37585	18.36401	579.97479	42.02951	728.51154	-973.56915	
4395	43.940	-741.78912	-4.06463	-643.78723	831.29395	1.09121	-637.06470	-658.48053	11.84186	493.76819	758.86163	18.20516	580.04706	41.64064	729.16791	-973.20831	
4396	43.950	-742.07104	-4.00012	-643.77533	830.55969	1.42249	-636.92236	-658.94659	11.74573	494.02094	758.01056	17.94492	580.11670	42.81834	729.11469	-973.71533	
4397	43.960	-742.59772	-3.50210	-643.73566	829.77911	1.84850	-636.83459	-659.77472	11.57991	494.09146	757.38660	17.54358	580.23004	40.32839	730.28870	-972.39771	
4398	43.970	-743.31909	-2.93411	-643.59131	829.40631	2.23515	-636.63855	-660.30829	11.20577	494.20258	756.86249	17.32070	580.27350	39.76617	730.73737	-971.96136	
4399	43.980	-743.92010	-2.54890	-643.46851	828.94293	2.63310	-636.72131	-660.88123	11.04534	494.28708	756.36047	17.01454	580.37787	39.12925	731.19873	-971.29144	
4400	43.990	-744.77911	-2.07452	-643.49158	828.33704	2.97087	-636.64569	-661.53345	10.85409	494.24335	755.72070	16.89775	580.48444	38.66090	731.68658	-970.79950	
4401	44.000	-745.20209	-1.86006	-643.55396	827.47095	3.28575	-636.59235	-662.26044	10.50528	494.25375	755.06067	16.66074	580.57025	37.92316	732.20575	-970.17450	
4402	44.010	-745.98267	-1.46288	-643.45233	826.74701	3.55601	-636.41992	-662.69775	10.25840	494.27240	754.33374	16.24551	580.66119	38.56438	731.93091	-970.30865	
4403	44.020	-746.24951	-1.40750	-643.36548	826.03125	3.87932	-636.52802	-663.45752	10.03774	494.35043	753.69830	15.85689	580.85034	38.14484	732.40125	-969.99957	
4404	44.030	-747.40607	-0.80135	-643.13928	825.49530	4.17311	-636.44275	-664.33020	9.74759	494.57953	752.90363	15.56355	580.91547	35.74873	733.70953	-968.75482	
4405	44.040	-747.83081	-0.42125	-643.22064	824.88654	4.51738	-636.19830	-665.01947	9.60367	494.66504	752.32843	15.37832	581.03375	35.07874	734.37469	-968.31805	
4406	44.050	-748.64990	0.10928	-643.14526	824.08643	4.89370	-636.06934	-665.68439	9.42877	494.69418	751.49670	15.03065	581.08759	34.13186	735.08014	-968.02039	
4407	44.060	-749.20935	0.12876	-643.03015	823.20544	5.36611	-636.13123	-666.23004	9.01561	495.07703	750.77808	14.73659	581.14905	33.41621	735.59650	-967.59955	
4408	44.070	-749.96423	0.64104	-642.85052	822.80865	5.64779	-636.00586	-666.94727	8.90781	495.13260	750.26569	14.46894	581.19910	33.03166	735.96729	-967.19690	
4409	44.080	-750.65216	0.81025	-642.77802	822.03143	6.09546	-635.83478	-667.60455	8.60950	495.30637	749.58765	14.25193	581.43616	32.28149	736.48083	-966.62396	
4410	44.090	-751.55060	1.34472	-642.61279	821.24066	6.51756	-635.77472	-668.40765	8.34469	495.45932	748.71362	13.95115	581.36285	31.43516	737.07233	-966.10797	
4411	44.100	-752.47943	1.90167	-642.59058	820.30853	6.86532	-635.77112	-669.34998	8.18313	495.36288	747.74561	13.50058	581.37292	30.83062	737.60980	-965.78571	
4412	44.110	-753.00568	2.12609	-642.60767	819.56134	7.12826	-635.59766	-670.03314	7.96562	495.38913	747.14362	13.14164	581.58331	30.05392	738.13947	-965.18988	
4413	44.120	-754.17181	2.65654	-642.33911	818.74701	7.43264	-635.61346	-670.89471	7.47839	495.42343	746.47162	12.92961	581.78772	29.14306	738.80768	-964.65228	
4414	44.130	-754.56494	2.67480	-642.21161	818.13892	7.83649	-635.55823	-671.54138	7.37345	495.49802	745.77716	12.78773	581.80695	28.62639	739.35211	-964.09644	
4415	44.140	-755.17139	2.93596	-642.19043	817.32031	8.15949	-635.50317	-672.36597	7.08864	495.63052	744.75262	12.30061	581.72827	27.85787	739.73853	-963.48590	
4416	44.150	-755.86530	3.27049	-642.24164	816.37628	8.54222	-635.33044	-673.29901	6.81555	495.70450	743.96680	11.96490	581.93347	26.89257	740.31726	-962.86700	
4417	44.160	-757.34229	4.02813	-641.97766	815.74017	8.84216	-635.27240	-673.85352	6.63359	495.77173	743.19391	11.68663	582.05200	26.03461	740.99133	-962.31647	
4418	44.170	-757.78119	4.42827	-642.03558	815.04742	9.31487	-635.14679	-674.88165	6.33036	495.87146	742.70410	11.50360	582.15875	25.36559	741.52832	-961.85089	
4419	44.180	-758.40436	4.38666	-641.84973	813.67493	9.73264	-635.11517	-675.60864	6.16042	496.06238	741.55090	11.02392	582.19275	24.37359	741.91724	-961.32642	
4420	44.190	-759.71667	5.11831	-641.81470	813.12775	10.00383	-634.93469	-676.51434	5.84681	496.09024	740.47272	10.58044	582.30878	23.37089	742.63287	-960.90045	
4421	44.200	-760.41498	5.48404	-641.79321	812.36694	10.47904	-634.87213	-677.33832	5.53708	496.17517	740.38861	10.10102	581.79974	22.55748	743.27332	-960.47150	
4422	44.210	-761.38928	6.19667	-641.59845	811.19177	10.94881	-634.88654	-678.14557	5.23483	496.11111	739.51453	9.76276	581.86908	21.31496	743.88043	-959.60431	
4423	44.220	-762.15424	6.52872	-641.53564	810.47644	11.23358	-634.77130	-679.13440	4.95450	496.23282	738.42029	9.42719	581.92694	20.24416	744.50031	-958.95557	
4424	44.230	-762.81848	6.71130	-641.50183	809.83038	11.61145	-634.57843	-679.90027	4.68793	496.33615	737.70197	9.16833	582.04596	19.84596	745.10883	-958.96545	
